<mxfile host="Electron" modified="2023-10-05T00:47:16.922Z" agent="Mozilla/5.0 (Windows NT 10.0; Win64; x64) AppleWebKit/537.36 (KHTML, like Gecko) draw.io/21.7.5 Chrome/114.0.5735.289 Electron/25.8.1 Safari/537.36" etag="OpC5p9_YI8u_gLuP-gCS" version="21.7.5" type="device">
  <diagram id="6AEQii9V6KLUxL1nRUyR" name="PÃ¡gina-1">
    <mxGraphModel dx="880" dy="524" grid="0" gridSize="10" guides="1" tooltips="1" connect="1" arrows="1" fold="1" page="1" pageScale="1" pageWidth="827" pageHeight="1169" background="none" math="0" shadow="0">
      <root>
        <mxCell id="0" />
        <mxCell id="1" parent="0" />
        <mxCell id="AdVOvtu6Z4-0rSdzMaog-8" value="AWS Region" style="sketch=0;outlineConnect=0;gradientColor=none;html=1;whiteSpace=wrap;fontSize=12;fontStyle=0;shape=mxgraph.aws4.group;grIcon=mxgraph.aws4.group_region;strokeColor=#879196;fillColor=none;verticalAlign=top;align=left;spacingLeft=30;fontColor=#879196;dashed=1;" vertex="1" parent="1">
          <mxGeometry x="164" y="149" width="578" height="321" as="geometry" />
        </mxCell>
        <mxCell id="AdVOvtu6Z4-0rSdzMaog-3" value="Private subnet" style="points=[[0,0],[0.25,0],[0.5,0],[0.75,0],[1,0],[1,0.25],[1,0.5],[1,0.75],[1,1],[0.75,1],[0.5,1],[0.25,1],[0,1],[0,0.75],[0,0.5],[0,0.25]];outlineConnect=0;html=1;whiteSpace=wrap;fontSize=12;fontStyle=0;container=1;pointerEvents=0;collapsible=0;recursiveResize=0;shape=mxgraph.aws4.group;grIcon=mxgraph.aws4.group_security_group;grStroke=0;strokeColor=#006EAF;fillColor=#1ba1e2;verticalAlign=top;align=left;spacingLeft=30;fontColor=#ffffff;dashed=0;" vertex="1" parent="1">
          <mxGeometry x="463" y="232" width="153" height="133" as="geometry" />
        </mxCell>
        <mxCell id="AdVOvtu6Z4-0rSdzMaog-2" value="EC2 Private" style="sketch=0;points=[[0,0,0],[0.25,0,0],[0.5,0,0],[0.75,0,0],[1,0,0],[0,1,0],[0.25,1,0],[0.5,1,0],[0.75,1,0],[1,1,0],[0,0.25,0],[0,0.5,0],[0,0.75,0],[1,0.25,0],[1,0.5,0],[1,0.75,0]];outlineConnect=0;fontColor=#FFFFFF;fillColor=#ED7100;strokeColor=#ffffff;dashed=0;verticalLabelPosition=bottom;verticalAlign=top;align=center;html=1;fontSize=12;fontStyle=1;aspect=fixed;shape=mxgraph.aws4.resourceIcon;resIcon=mxgraph.aws4.ec2;" vertex="1" parent="AdVOvtu6Z4-0rSdzMaog-3">
          <mxGeometry x="52" y="43" width="50" height="50" as="geometry" />
        </mxCell>
        <mxCell id="AdVOvtu6Z4-0rSdzMaog-5" value="Public subnet" style="points=[[0,0],[0.25,0],[0.5,0],[0.75,0],[1,0],[1,0.25],[1,0.5],[1,0.75],[1,1],[0.75,1],[0.5,1],[0.25,1],[0,1],[0,0.75],[0,0.5],[0,0.25]];outlineConnect=0;html=1;whiteSpace=wrap;fontSize=12;fontStyle=0;container=1;pointerEvents=0;collapsible=0;recursiveResize=0;shape=mxgraph.aws4.group;grIcon=mxgraph.aws4.group_security_group;grStroke=0;verticalAlign=top;align=left;spacingLeft=30;fillColor=#6d8764;fontColor=#ffffff;strokeColor=#3A5431;labelBackgroundColor=none;" vertex="1" parent="1">
          <mxGeometry x="235" y="229" width="153" height="133" as="geometry" />
        </mxCell>
        <mxCell id="AdVOvtu6Z4-0rSdzMaog-1" value="EC2 Nat Gateway" style="sketch=0;points=[[0,0,0],[0.25,0,0],[0.5,0,0],[0.75,0,0],[1,0,0],[0,1,0],[0.25,1,0],[0.5,1,0],[0.75,1,0],[1,1,0],[0,0.25,0],[0,0.5,0],[0,0.75,0],[1,0.25,0],[1,0.5,0],[1,0.75,0]];outlineConnect=0;fontColor=#FFFFFF;fillColor=#ED7100;strokeColor=#ffffff;dashed=0;verticalLabelPosition=bottom;verticalAlign=top;align=center;html=1;fontSize=12;fontStyle=1;aspect=fixed;shape=mxgraph.aws4.resourceIcon;resIcon=mxgraph.aws4.ec2;" vertex="1" parent="1">
          <mxGeometry x="283" y="275" width="50" height="50" as="geometry" />
        </mxCell>
        <mxCell id="AdVOvtu6Z4-0rSdzMaog-6" value="" style="edgeStyle=orthogonalEdgeStyle;rounded=0;orthogonalLoop=1;jettySize=auto;html=1;" edge="1" parent="1" source="AdVOvtu6Z4-0rSdzMaog-2" target="AdVOvtu6Z4-0rSdzMaog-1">
          <mxGeometry relative="1" as="geometry" />
        </mxCell>
        <mxCell id="AdVOvtu6Z4-0rSdzMaog-9" value="VPC" style="points=[[0,0],[0.25,0],[0.5,0],[0.75,0],[1,0],[1,0.25],[1,0.5],[1,0.75],[1,1],[0.75,1],[0.5,1],[0.25,1],[0,1],[0,0.75],[0,0.5],[0,0.25]];outlineConnect=0;gradientColor=none;html=1;whiteSpace=wrap;fontSize=12;fontStyle=0;container=1;pointerEvents=0;collapsible=0;recursiveResize=0;shape=mxgraph.aws4.group;grIcon=mxgraph.aws4.group_vpc;strokeColor=#248814;fillColor=none;verticalAlign=top;align=left;spacingLeft=30;fontColor=#AAB7B8;dashed=0;" vertex="1" parent="1">
          <mxGeometry x="205" y="190" width="439" height="212" as="geometry" />
        </mxCell>
        <mxCell id="AdVOvtu6Z4-0rSdzMaog-11" value="" style="edgeStyle=orthogonalEdgeStyle;rounded=0;orthogonalLoop=1;jettySize=auto;html=1;startArrow=classic;startFill=1;endArrow=none;endFill=0;" edge="1" parent="1" source="AdVOvtu6Z4-0rSdzMaog-10" target="AdVOvtu6Z4-0rSdzMaog-1">
          <mxGeometry relative="1" as="geometry" />
        </mxCell>
        <mxCell id="AdVOvtu6Z4-0rSdzMaog-12" value="" style="edgeStyle=orthogonalEdgeStyle;rounded=0;orthogonalLoop=1;jettySize=auto;html=1;fillColor=#a20025;strokeColor=#6F0000;" edge="1" parent="1" source="AdVOvtu6Z4-0rSdzMaog-13" target="AdVOvtu6Z4-0rSdzMaog-2">
          <mxGeometry relative="1" as="geometry" />
        </mxCell>
        <mxCell id="AdVOvtu6Z4-0rSdzMaog-10" value="Internet" style="outlineConnect=0;dashed=0;verticalLabelPosition=bottom;verticalAlign=top;align=center;html=1;shape=mxgraph.aws3.internet_2;fillColor=#D2D3D3;gradientColor=none;" vertex="1" parent="1">
          <mxGeometry x="388" y="59" width="79.5" height="54" as="geometry" />
        </mxCell>
        <mxCell id="AdVOvtu6Z4-0rSdzMaog-14" value="" style="edgeStyle=orthogonalEdgeStyle;rounded=0;orthogonalLoop=1;jettySize=auto;html=1;fillColor=#a20025;strokeColor=#6F0000;endArrow=none;endFill=0;" edge="1" parent="1" source="AdVOvtu6Z4-0rSdzMaog-10" target="AdVOvtu6Z4-0rSdzMaog-13">
          <mxGeometry relative="1" as="geometry">
            <mxPoint x="468" y="86" as="sourcePoint" />
            <mxPoint x="540" y="275" as="targetPoint" />
          </mxGeometry>
        </mxCell>
        <mxCell id="AdVOvtu6Z4-0rSdzMaog-13" value="" style="shape=mxgraph.mockup.markup.redX;fillColor=#ff0000;html=1;shadow=0;whiteSpace=wrap;strokeColor=none;" vertex="1" parent="1">
          <mxGeometry x="518" y="194" width="43" height="32" as="geometry" />
        </mxCell>
      </root>
    </mxGraphModel>
  </diagram>
</mxfile>
